# xmcd
#
# Track frame offsets: 
#        150
#        17325
#        38118
#        56456
#        76262
#        95545
#        111632
#        135000
#        151687
#        168125
#        190542
#        209944
#        230902
#        251102
#        265552
#        283204
#
# Disc length: 4033 seconds
#
# Revision: 0
# Processed by: cddbd v1.5.2PL0 Copyright (c) Steve Scherf et al.
# Submitted via: ExactAudioCopy v0.99pb5
#
DISCID=d20fbf10
DTITLE=Franco de Vita - De Colección
DYEAR=2000
DGENRE=Ballad
TTITLE0=Te amo
TTITLE1=No Basta
TTITLE2=Un buen perdedor
TTITLE3=Fuera de este mundo
TTITLE4=Y te pienso
TTITLE5=No hay cielo
TTITLE6=Louis
TTITLE7=Solo importas tu
TTITLE8=Como apartarte de mi
TTITLE9=Sin tanto espacio
TTITLE10=Los hijos de la ciudad
TTITLE11=Calido y frio
TTITLE12=Descansa tu amor en mi
TTITLE13=Lo que espero de ti
TTITLE14=Mi amigo Sebastian
TTITLE15=No hace falta decirlo
EXTD=
EXTT0=
EXTT1=
EXTT2=
EXTT3=
EXTT4=
EXTT5=
EXTT6=
EXTT7=
EXTT8=
EXTT9=
EXTT10=
EXTT11=
EXTT12=
EXTT13=
EXTT14=
EXTT15=
PLAYORDER=
